<svg id="Layer_1" data-name="Layer 1" xmlns="http://www.w3.org/2000/svg" viewBox="48 30 360 512" style="display: block;">
  <defs>
    <style>
      .cls-1 {
        fill: #264c5a;
      }

      .cls-2 {
        fill: #fecf2c;
      }

      .cls-3 {
        fill: #2b7053;
      }

      .cls-4 {
        fill: #58957e;
      }
    </style>
  </defs>
  <path class="cls-1" d="M408.37,324.64c0,70.05-35.9,134.36-89.34,169.37-4.54,2.99-9.21,5.75-14,8.29-9.61,5.1-19.69,9.29-30.15,12.45-1,.3-2,.6-3.01.88-4.64,3.02-8.22,6.1-10.99,8.89-.77.76-1.47,1.51-2.11,2.23-4.52,5.04-8.27,10.89-16.13,13.92-4.08,1.58-7.94,1.88-10.9,1.79-.56-.02-1.11-.02-1.67-.02V145.13h-14.26c-1.61-11.4-2.75-32.03,6.56-54.46,3.4-8.19,16.62-40.02,47.1-49.58,5.7-1.79,10.72-2.39,14.26-2.61v23.33c-4.07,7.69-23.15,12.67-33.06,34.86-8.92,20-7.44,38.49-1.45,46.11,89.58,10.02,159.15,84.34,159.15,181.86Z"/>
  <path class="cls-2" d="M213.77,359.91v91.03c0,11.47-11.99,19.01-22.33,14.03l-38.31-18.45c-13.54-6.52-16.18-24.68-5.05-34.78l59.9-54.39c2.23-2.02,5.79-.44,5.79,2.56Z"/>
  <path class="cls-2" d="M213.77,303.84v-89c0-15.6-16.77-25.45-30.4-17.85l-33.83,18.86c-11.76,6.56-13.75,22.66-3.94,31.89l62.33,58.62c2.21,2.08,5.84.51,5.84-2.52Z"/>
  <path class="cls-2" d="M202.53,315.94l-62.76-55.55c-9.9-8.76-25.54-4.63-29.81,7.88l-11.3,33.05c-3.75,10.95,4.39,22.34,15.97,22.34h84.98c4.06,0,5.97-5.03,2.93-7.72Z"/>
  <path class="cls-2" d="M202.53,347.91l-62.76,55.55c-9.9,8.76-25.54,4.63-29.81-7.88l-11.3-33.05c-3.75-10.95,4.39-22.34,15.97-22.34h84.98c4.06,0,5.97,5.03,2.93,7.72Z"/>
  <path class="cls-2" d="M299.58,209.79c-15.85,0-28.74,12.89-28.74,28.73,0,13.43,9.26,24.74,21.74,27.87,2.24.57,4.59.87,7,.87s4.76-.3,7-.87c12.48-3.13,21.74-14.44,21.74-27.87,0-15.84-12.89-28.73-28.74-28.73ZM304.02,252.58c-1.4.44-2.9.68-4.44.68s-3.04-.24-4.44-.68c-5.97-1.89-10.3-7.48-10.3-14.06,0-8.12,6.61-14.73,14.74-14.73s14.74,6.61,14.74,14.73c0,6.58-4.33,12.17-10.3,14.06Z"/>
  <path class="cls-2" d="M306.58,257.99v76.59c0,7.78-2.81,15.3-7.92,21.18l-19.29,22.19c-2.9,3.32-4.49,7.58-4.49,11.99v124.81c-.5.15-1,.3-1.5.45-1,.29-1.96.72-2.82,1.3-4.01,2.74-7.18,5.5-9.68,8.02v-134.58c0-7.79,2.81-15.31,7.92-21.18l19.3-22.19c2.89-3.32,4.48-7.58,4.48-11.99v-76.59c0-2.18.99-4.12,2.56-5.41,1.4.44,2.9.68,4.44.68s3.04-.24,4.44-.68c1.57,1.29,2.56,3.23,2.56,5.41Z"/>
  <path class="cls-2" d="M355.73,287.84c-14.22,0-25.79,11.57-25.79,25.8,0,11.79,7.96,21.77,18.79,24.82,2.23.63,4.57.97,7,.97s4.77-.34,7-.97c10.83-3.05,18.79-13.03,18.79-24.82,0-14.23-11.57-25.8-25.79-25.8ZM361.09,324.14c-1.61.83-3.43,1.29-5.36,1.29s-3.75-.46-5.36-1.29c-3.81-1.95-6.43-5.93-6.43-10.5,0-6.51,5.29-11.8,11.79-11.8s11.79,5.29,11.79,11.8c0,4.57-2.62,8.55-6.43,10.5Z"/>
  <path class="cls-2" d="M362.73,328.64v44.19c0,8.17-3.06,15.96-8.62,21.95l-30.2,32.55c-3.15,3.39-4.88,7.81-4.88,12.43v54.25c-4.54,2.99-9.21,5.75-14,8.29v-62.54c0-8.17,3.06-15.96,8.62-21.95l30.2-32.55c3.15-3.39,4.88-7.81,4.88-12.43v-44.19c0-1.72.61-3.29,1.64-4.5,1.61.83,3.43,1.29,5.36,1.29s3.75-.46,5.36-1.29c1.03,1.21,1.64,2.78,1.64,4.5Z"/>
  <path class="cls-4" d="M212.18,139.58c-.98-10.83-4.57-46.76-34.19-74.49C135.43,25.24,79.38,30.62,72.78,31.58c.95,9.29,3.6,52.28,40.69,79.47,44.15,32.38,91.39,29.61,98.72,28.53Z"/>
  <path class="cls-3" d="M116.12,70.64c7.53,4.36,15.91,9.82,24.62,16.64,8.56,6.69,15.76,13.38,21.74,19.53,3.29.66,7.25,1.74,11.55,3.57,5.57,2.36,9.92,5.22,13.08,7.64-5.4-7.77-14.69-19.13-29.21-29.21-16.35-11.36-32.09-16.06-41.77-18.17Z"/>
  <path class="cls-2" d="M72.83,326.71c-2,87.13,64.86,165.74,157.24,165.74v49.99c-.56,0-1.11,0-1.67.02-2.96.09-6.82-.21-10.9-1.79-7.86-3.03-11.61-8.88-16.13-13.92-2.62-2.92-6.17-6.31-11-9.71-81.1-19.83-141.88-101.25-141.88-192.4,0-104.95,80.56-183.02,179.94-183.02.55,0,1.09,0,1.64.01v26.82c-86.28,3.38-155.31,73.86-157.24,158.26Z"/>
</svg>