<?xml version="1.0" encoding="UTF-8"?>
<svg id="Layer_1" data-name="Layer 1" xmlns="http://www.w3.org/2000/svg" viewBox="0 0 798.87 182.04">
  <defs>
    <style>
      .cls-1 {
        fill: #264c5a;
      }
    </style>
  </defs>
  <path class="cls-1" d="M70.42,140.12V41.51h21.09v80.94h37.93v17.67h-59.02Z"/>
  <path class="cls-1" d="M148.07,140.12V41.51h21.09v80.94h37.93v17.67h-59.02Z"/>
  <path class="cls-1" d="M251.05,89.17l-5.2-4.52v55.46h-20.13V40.01h.41l46.97,47.38,46.97-47.38h.41v100.11h-20.13v-55.46l-5.2,4.52c-7.26,7.94-14.65,15.89-22.05,23.69-7.39-7.81-14.65-15.75-22.05-23.69Z"/>
  <path class="cls-1" d="M408.54,105.88c0,20.82-15.47,36.15-36.56,36.15s-36.43-15.34-36.43-36.15,15.34-36.15,36.43-36.15,36.56,15.34,36.56,36.15ZM389.23,105.88c0-11.37-7.53-18.9-17.25-18.9s-17.12,7.53-17.12,18.9,7.39,18.9,17.12,18.9,17.25-7.53,17.25-18.9Z"/>
  <path class="cls-1" d="M441.14,71.64l.55,7.81c.14,2.46-.41,4.11-.55,4.79h.27c2.88-6.3,11.91-14.52,23.55-14.52,15.48,0,23.83,9.45,23.83,27.53v42.87h-20.54v-39.44c0-6.71-1.92-12.33-9.31-12.33-9.59,0-16.02,7.4-16.02,17.67v34.1h-20.54v-68.47h18.76Z"/>
  <path class="cls-1" d="M506.19,74.38c3.83-1.78,13.01-4.66,25.06-4.66,21.09,0,31.63,10.13,31.63,27.25v43.14h-18.49l-.41-6.3c-.14-2.88.27-4.79.27-4.79h-.27c-1.78,4.11-8.63,13.01-21.23,13.01-11.78,0-21.77-6.85-21.77-20.82,0-16.71,16.98-24.92,41.63-21.5v-1.64c0-8.22-5.62-11.23-14.65-11.23s-17.26,3.01-21.77,5.89v-18.35ZM542.07,110.4c-15.34-2.46-21.77,2.33-21.77,8.76,0,4.38,3.01,7.26,7.81,7.26,7.94,0,13.97-7.26,13.97-16.02Z"/>
  <path class="cls-1" d="M647.79,140.12h-18.62l-.41-6.3c-.14-2.74.27-4.52.27-4.52h-.27c-3.15,6.85-12.19,12.74-22.19,12.74-17.67,0-31.91-13.69-31.91-36.15s14.24-36.15,31.36-36.15c10,0,17.8,4.66,21.5,10h.27s-.41-1.78-.41-5.61v-32.59h20.41v98.6ZM593.97,105.88c0,11.23,6.85,18.9,16.3,18.9,8.22,0,16.43-6.3,16.43-18.9s-8.22-18.9-16.43-18.9c-9.45,0-16.3,7.53-16.3,18.9Z"/>
  <path class="cls-1" d="M728.45,101.77c0,3.7-.41,6.98-.55,8.35h-44.92c.82,9.31,7.94,14.65,19.04,14.65,9.72,0,19.86-2.88,23.69-5.07v17.39c-4.25,2.19-13.42,4.93-25.61,4.93-23.55,0-38.35-15.2-38.35-36.15s15.2-36.15,34.79-36.15c21.09,0,31.91,15.06,31.91,32.05ZM696.41,85.88c-8.22,0-12.87,6.3-13.42,13.69h25.88c.27-7.39-4.11-13.69-12.46-13.69Z"/>
</svg>