<?xml version="1.0" encoding="UTF-8"?>
<svg id="Layer_1" data-name="Layer 1" xmlns="http://www.w3.org/2000/svg" viewBox="0 0 883.02 776.67">
  <defs>
    <style>
      .cls-1 {
        fill: #fff;
      }
    </style>
  </defs>
  <g>
    <path class="cls-1" d="M568.81,344.37c-1.93,0-3.75-.46-5.36-1.29-3.81-1.95-6.43-5.93-6.43-10.5,0-6.51,5.29-11.8,11.79-11.8s11.79,5.29,11.79,11.8c0,4.57-2.62,8.55-6.43,10.5-1.61.83-3.43,1.29-5.36,1.29Z"/>
    <path class="cls-1" d="M512.66,272.2c-1.54,0-3.04-.24-4.44-.68-5.97-1.89-10.3-7.48-10.3-14.06,0-8.12,6.61-14.73,14.74-14.73s14.74,6.61,14.74,14.73c0,6.58-4.33,12.17-10.3,14.06-1.4.44-2.9.68-4.44.68Z"/>
    <path class="cls-1" d="M621.45,343.58c0,70.05-35.9,134.36-89.34,169.37v-54.25c0-4.62,1.73-9.04,4.88-12.43l30.2-32.55c5.56-5.99,8.62-13.78,8.62-21.95v-34.37c10.83-3.05,18.79-13.03,18.79-24.82,0-14.23-11.57-25.8-25.79-25.8s-25.79,11.57-25.79,25.8c0,11.79,7.96,21.77,18.79,24.82v34.37c0,4.62-1.73,9.04-4.88,12.43l-30.2,32.55c-5.56,5.99-8.62,13.78-8.62,21.95v62.54c-9.61,5.1-19.69,9.29-30.15,12.45v-124.81c0-4.41,1.59-8.67,4.49-11.99l19.29-22.19c5.11-5.88,7.92-13.4,7.92-21.18v-68.19c12.48-3.13,21.74-14.44,21.74-27.87,0-15.84-12.89-28.73-28.74-28.73s-28.74,12.89-28.74,28.73c0,13.43,9.26,24.74,21.74,27.87v68.19c0,4.41-1.59,8.67-4.48,11.99l-19.3,22.19c-5.11,5.87-7.92,13.39-7.92,21.18v134.58c-.77.76-1.47,1.51-2.11,2.23-4.52,5.04-8.27,10.89-16.13,13.92-4.08,1.58-7.94,1.88-10.9,1.79-.56-.02-1.11-.02-1.67-.02V164.07h-14.26c-1.61-11.4-2.75-32.03,6.56-54.46,3.4-8.19,16.62-40.02,47.1-49.58,5.7-1.79,10.72-2.39,14.26-2.61v23.33c-4.07,7.69-23.15,12.67-33.06,34.86-8.92,20-7.44,38.49-1.45,46.11,89.58,10.02,159.15,84.34,159.15,181.86Z"/>
    <path class="cls-1" d="M426.85,378.85v91.03c0,11.47-11.99,19.01-22.33,14.03l-38.31-18.45c-13.54-6.52-16.18-24.68-5.05-34.78l59.9-54.39c2.23-2.02,5.79-.44,5.79,2.56Z"/>
    <path class="cls-1" d="M426.85,322.78v-89c0-15.6-16.77-25.45-30.4-17.85l-33.83,18.86c-11.76,6.56-13.75,22.66-3.94,31.89l62.33,58.62c2.21,2.08,5.84.51,5.84-2.52Z"/>
    <path class="cls-1" d="M415.61,334.88l-62.76-55.55c-9.9-8.76-25.54-4.63-29.81,7.88l-11.3,33.05c-3.75,10.95,4.39,22.34,15.97,22.34h84.98c4.06,0,5.97-5.03,2.93-7.72Z"/>
    <path class="cls-1" d="M415.61,366.85l-62.76,55.55c-9.9,8.76-25.54,4.63-29.81-7.88l-11.3-33.05c-3.75-10.95,4.39-22.34,15.97-22.34h84.98c4.06,0,5.97,5.03,2.93,7.72Z"/>
    <path class="cls-1" d="M425.26,158.52c-.98-10.83-4.57-46.76-34.19-74.49-42.57-39.85-98.61-34.47-105.21-33.51.95,9.29,3.6,52.28,40.69,79.47,44.15,32.38,91.39,29.61,98.72,28.53Z"/>
    <path class="cls-1" d="M329.21,89.58c7.53,4.36,15.91,9.82,24.62,16.64,8.56,6.69,15.76,13.38,21.74,19.53,3.29.66,7.25,1.74,11.55,3.57,5.57,2.36,9.92,5.22,13.08,7.64-5.4-7.77-14.69-19.13-29.21-29.21-16.35-11.36-32.09-16.06-41.77-18.17Z"/>
    <path class="cls-1" d="M285.91,345.65c-2,87.13,64.86,165.74,157.24,165.74v49.99c-.56,0-1.11,0-1.67.02-2.96.09-6.82-.21-10.9-1.79-7.86-3.03-11.61-8.88-16.13-13.92-2.62-2.92-6.17-6.31-11-9.71-81.1-19.83-141.88-101.25-141.88-192.4,0-104.95,80.56-183.02,179.94-183.02.55,0,1.09,0,1.64.01v26.82c-86.28,3.38-155.31,73.86-157.24,158.26Z"/>
  </g>
  <g>
    <path class="cls-1" d="M112.49,725.01v-98.6h21.09v80.94h37.93v17.67h-59.02Z"/>
    <path class="cls-1" d="M190.14,725.01v-98.6h21.09v80.94h37.93v17.67h-59.02Z"/>
    <path class="cls-1" d="M293.13,674.06l-5.2-4.52v55.46h-20.13v-100.11h.41l46.97,47.38,46.97-47.38h.41v100.11h-20.13v-55.46l-5.2,4.52c-7.26,7.94-14.65,15.89-22.05,23.69-7.39-7.81-14.65-15.75-22.05-23.69Z"/>
    <path class="cls-1" d="M450.62,690.77c0,20.82-15.47,36.15-36.56,36.15s-36.43-15.34-36.43-36.15,15.34-36.15,36.43-36.15,36.56,15.34,36.56,36.15ZM431.31,690.77c0-11.37-7.53-18.9-17.25-18.9s-17.12,7.53-17.12,18.9,7.39,18.9,17.12,18.9,17.25-7.53,17.25-18.9Z"/>
    <path class="cls-1" d="M483.21,656.53l.55,7.81c.14,2.46-.41,4.11-.55,4.79h.27c2.88-6.3,11.91-14.52,23.55-14.52,15.48,0,23.83,9.45,23.83,27.53v42.87h-20.54v-39.44c0-6.71-1.92-12.33-9.31-12.33-9.59,0-16.02,7.4-16.02,17.67v34.1h-20.54v-68.47h18.76Z"/>
    <path class="cls-1" d="M548.26,659.27c3.83-1.78,13.01-4.66,25.06-4.66,21.09,0,31.63,10.13,31.63,27.25v43.14h-18.49l-.41-6.3c-.14-2.88.27-4.79.27-4.79h-.27c-1.78,4.11-8.63,13.01-21.23,13.01-11.78,0-21.77-6.85-21.77-20.82,0-16.71,16.98-24.92,41.63-21.5v-1.64c0-8.22-5.62-11.23-14.65-11.23s-17.26,3.01-21.77,5.89v-18.35ZM584.14,695.29c-15.34-2.46-21.77,2.33-21.77,8.76,0,4.38,3.01,7.26,7.81,7.26,7.94,0,13.97-7.26,13.97-16.02Z"/>
    <path class="cls-1" d="M689.87,725.01h-18.62l-.41-6.3c-.14-2.74.27-4.52.27-4.52h-.27c-3.15,6.85-12.19,12.74-22.19,12.74-17.67,0-31.91-13.69-31.91-36.15s14.24-36.15,31.36-36.15c10,0,17.8,4.66,21.5,10h.27s-.41-1.78-.41-5.61v-32.59h20.41v98.6ZM636.05,690.77c0,11.23,6.85,18.9,16.3,18.9,8.22,0,16.43-6.3,16.43-18.9s-8.22-18.9-16.43-18.9c-9.45,0-16.3,7.53-16.3,18.9Z"/>
    <path class="cls-1" d="M770.53,686.66c0,3.7-.41,6.98-.55,8.35h-44.92c.82,9.31,7.94,14.65,19.04,14.65,9.72,0,19.86-2.88,23.69-5.07v17.39c-4.25,2.19-13.42,4.93-25.61,4.93-23.55,0-38.35-15.2-38.35-36.15s15.2-36.15,34.79-36.15c21.09,0,31.91,15.06,31.91,32.05ZM738.48,670.78c-8.22,0-12.87,6.3-13.42,13.69h25.88c.27-7.39-4.11-13.69-12.46-13.69Z"/>
  </g>
</svg>